<?xml version="1.0" encoding="UTF-8"?><svg id="a" xmlns="http://www.w3.org/2000/svg" viewBox="0 0 23.5 13.5"><path d="m20.65,9.57c-.58-.26-1.18-.54-1.64-.9.54-.58,1.49-1.64,1.49-4.17,0-3.92-2.35-4.5-3.75-4.5s-3.75.58-3.75,4.5c0,2.53.95,3.6,1.49,4.17-.33.26-.71.46-1.06.63-.3.14-.68.3-1.14.47-.15.05-.39.14-.71.25-.31-.16-.62-.31-.92-.44-.58-.26-1.18-.54-1.64-.9.54-.58,1.49-1.64,1.49-4.17C10.5.58,8.15,0,6.75,0s-3.75.58-3.75,4.5c0,2.53.95,3.6,1.49,4.17-.46.36-1.06.63-1.64.9-1.27.58-2.85,1.29-2.85,3.18v.75h1.5v-.75c0-.83.6-1.19,1.97-1.81.77-.35,1.65-.75,2.31-1.41.81-.81.1-1.56-.17-1.85-.44-.48-1.11-1.2-1.11-3.18,0-2.66,1.2-3,2.25-3s2.25.34,2.25,3c0,1.99-.67,2.71-1.11,3.18-.27.28-.97,1.04-.17,1.85.66.66,1.54,1.06,2.31,1.41,1.37.62,1.97.98,1.97,1.81v.75h1.5v-.75c0-.68-.21-1.21-.53-1.63.44-.16.81-.32,1.1-.46.52-.25,1.18-.6,1.7-1.13.81-.81.1-1.56-.17-1.85-.44-.48-1.11-1.2-1.11-3.18,0-2.66,1.2-3,2.25-3s2.25.34,2.25,3c0,1.99-.67,2.71-1.11,3.18-.27.28-.97,1.04-.17,1.85.66.66,1.54,1.06,2.31,1.41,1.37.62,1.97.98,1.97,1.81v.75h1.5v-.75c0-1.89-1.58-2.6-2.85-3.18Z"/></svg>