<?xml version="1.0" encoding="UTF-8"?><svg id="a" xmlns="http://www.w3.org/2000/svg" viewBox="0 0 19.69 19.69"><path d="m19.69,0h-.75c-.17,0-3.98.02-7.41,2v-.02s-.13.08-.13.08l-.1-.1-.48.48-.56.37v.02c-.37.29-.72.6-1.05.93-.46.46-.63.66-.85.92l-1.3-1.3L0,6.91l3.7,3.7-.07.09h0c-.11.16-.16.24-.16.24l-.34.51,5.11,5.11.51-.34s.08-.06.24-.16h0s.09-.06.09-.06l3.7,3.7,3.54-7.07-1.3-1.3c.26-.22.45-.39.92-.85.33-.33.64-.69.93-1.07h.02s.37-.55.37-.55l.48-.48-.1-.1.08-.11h-.02c1.97-3.44,2-7.25,2-7.42v-.75ZM2.53,7.32l4.24-2.12.61.61-.03.04h0c-1.14,1.35-2.11,2.62-2.78,3.52l-2.05-2.05Zm9.84,9.84l-2.05-2.05c.91-.67,2.18-1.63,3.52-2.78h0s.04-.03.04-.03l.61.61-2.12,4.24Zm2.5-7.75c-.45.45-.62.59-.88.82h0s-.04.03-.04.03l-.03-.03-.51.51c-1.6,1.4-3.15,2.57-4.16,3.3l-.08-.08-.49.49c-.09.07-.18.13-.26.18l-3.36-3.36c.06-.08.12-.17.18-.26l.49-.49-.08-.08c.73-1,1.91-2.55,3.31-4.15l.51-.51-.03-.03.03-.04h0c.22-.27.37-.44.82-.89.29-.29.61-.56.95-.82l4.47,4.47c-.26.34-.53.66-.82.95Zm1.65-2.24l-4.01-4.01c2.13-1.16,4.44-1.51,5.63-1.62-.11,1.18-.46,3.49-1.62,5.63Zm-10.94,6.89c.35.34.47.79.35,1.23-.19.69-.95,1.22-2.2,1.53l-1.21.3.3-1.21c.31-1.25.84-2.01,1.53-2.2.44-.12.89,0,1.23.35Z"/></svg>