<?xml version="1.0" encoding="UTF-8"?><svg id="a" xmlns="http://www.w3.org/2000/svg" viewBox="0 0 19.5 19.5"><path d="m19.47,9C19.09,3.97,14.87,0,9.75,0S.41,3.97.03,9l-.03,4.75c0,1.52,1.23,2.75,2.75,2.75s2.75-1.23,2.75-2.75v-2c0-1.52-1.23-2.75-2.75-2.75h-1.22C1.91,4.8,5.45,1.5,9.75,1.5s7.84,3.3,8.22,7.5h-1.22c-1.52,0-2.75,1.23-2.75,2.75v2c0,1.52,1.23,2.75,2.75,2.75.44,0,.86-.12,1.23-.3-.11,1.78-.88,1.8-1.23,1.8h-5.75v1.5h5.75c1.03,0,2.75-.49,2.75-3.75v-6.75h-.03Zm-16.72,1.5c.69,0,1.25.56,1.25,1.25v2c0,.69-.56,1.25-1.25,1.25s-1.25-.56-1.25-1.25v-3.25h1.25Zm15.25,3.25c0,.69-.56,1.25-1.25,1.25s-1.25-.56-1.25-1.25v-2c0-.69.56-1.25,1.25-1.25h1.25v3.25Z"/></svg>