<?xml version="1.0" standalone="no"?>
<!DOCTYPE svg PUBLIC "-//W3C//DTD SVG 20010904//EN"
 "http://www.w3.org/TR/2001/REC-SVG-20010904/DTD/svg10.dtd">
<svg version="1.0" xmlns="http://www.w3.org/2000/svg"
 width="700.000000pt" height="700.000000pt" viewBox="0 0 700.000000 700.000000"
 preserveAspectRatio="xMidYMid meet">
<metadata>
Created by potrace 1.14, written by Peter Selinger 2001-2017
</metadata>
<g transform="translate(0.000000,700.000000) scale(0.100000,-0.100000)"
fill="#000000" stroke="none">
<path d="M5648 5378 c-67 -103 -89 -140 -124 -200 -15 -27 -30 -48 -33 -48 -4
0 -62 57 -131 126 -69 69 -133 130 -143 135 -15 9 -17 6 -13 -18 3 -15 8 -53
11 -83 3 -30 8 -62 10 -70 2 -8 7 -40 10 -70 3 -30 8 -72 11 -92 5 -36 1 -41
-26 -40 -19 0 -181 14 -205 17 -95 13 -145 15 -145 7 0 -5 61 -67 135 -137 74
-70 135 -130 135 -134 0 -3 -74 -55 -165 -114 -91 -60 -165 -110 -165 -112 0
-1 15 -2 33 -2 17 0 100 -3 182 -8 83 -4 158 -7 168 -7 9 1 17 -6 17 -15 0
-14 -67 -263 -90 -335 -6 -18 -5 -28 1 -28 5 0 57 36 115 81 59 44 108 79 109
77 7 -6 14 -113 20 -273 4 -88 8 -191 10 -230 23 -470 23 -987 -1 -1198 -20
-174 -95 -303 -215 -367 -56 -30 -70 -33 -144 -32 -74 0 -89 3 -145 33 -62 33
-181 139 -214 190 -16 26 -16 28 12 75 42 72 51 106 48 181 -3 92 -32 139
-133 214 -45 34 -51 42 -44 62 5 12 9 25 10 29 1 4 3 13 5 20 4 12 19 105 31
188 3 19 9 59 14 88 9 60 7 309 -3 387 -7 49 -21 135 -31 184 -56 291 -201
595 -395 833 -78 96 -274 282 -365 346 -232 164 -524 290 -780 336 -16 3 -39
8 -50 10 -103 20 -404 28 -515 13 -385 -52 -701 -181 -994 -405 -181 -139
-392 -389 -497 -590 -17 -31 -34 -64 -39 -72 -42 -74 -111 -264 -144 -399 -44
-176 -50 -233 -51 -446 0 -155 10 -329 20 -345 2 -3 6 -21 9 -40 7 -48 69
-261 96 -333 34 -91 131 -277 196 -374 231 -350 607 -637 994 -761 148 -47
227 -66 325 -78 28 -4 54 -9 59 -12 16 -9 359 -10 431 -1 137 17 182 25 275
49 269 70 467 165 703 338 l69 50 41 -27 c66 -44 118 -60 183 -58 76 3 124 27
189 96 49 50 55 53 73 40 10 -8 57 -44 103 -82 94 -76 232 -148 329 -173 68
-17 224 -23 318 -11 161 21 407 179 508 327 83 120 152 321 169 488 24 239 24
761 0 1277 -3 66 -15 351 -17 425 0 3 0 20 1 38 l1 32 120 -60 c66 -33 120
-57 120 -53 0 3 -40 84 -90 179 -49 95 -86 175 -81 178 4 3 83 23 175 45 92
23 175 45 183 50 19 10 5 17 -189 96 -65 26 -125 53 -135 60 -15 11 -8 25 73
139 49 69 99 141 111 160 l21 33 -61 -18 c-34 -9 -107 -31 -161 -48 -55 -17
-112 -34 -128 -36 -33 -6 -35 -2 -43 140 -9 160 -16 239 -20 243 -2 2 -28 -34
-57 -80z"/>
</g>
</svg>
